# xmcd
# 
# Track frame offsets:
#     150
#     16622
#     22067
#     29477
#     36875
#     49785
#     56490
#     68577
# 
# Disc length: 1336
# 
# Revision: 0
# Processed by: cddbd v1.5.2PL0 Copyright (c) Steve Scherf et al.
# Submitted via: BonkEnc v1.0.8
# 
DISCID=5f053608
DTITLE=Against Me! - The Original Cowboy
DYEAR=2009
DGENRE=Punk
TTITLE0=A Brief Yet Triumphant Introduction - Cliché Guevara
TTITLE1=Mutiny on the Electronic Bay
TTITLE2=T.S.R. (This Shit Rules)
TTITLE3=Rice and Bread
TTITLE4=Cavalier Eternal
TTITLE5=Unsubstantiated Rumors (Are Good Enough For Me To Base My Life On)
TTITLE6=Slurring the Rhythms
TTITLE7=You Look Like I Need a Drink - Turn Those Clapping Hands Into Angry Balled Fists
EXTD=These predominantly never-before-heard demos were recorded at Goldentone Studio in Gainesville, FL with Rob McGregor on July 15th, 2003.
EXTT0=
EXTT1=
EXTT2=
EXTT3=
EXTT4=
EXTT5=
EXTT6=
EXTT7=
PLAYORDER=
